<svg width="270" height="182" viewBox="0 0 270 182" fill="none" xmlns="http://www.w3.org/2000/svg">
<path d="M171.055 181.603C127.741 181.603 92.5038 146.754 92.5038 103.919C92.5038 61.0828 127.741 26.2341 171.055 26.2341C214.368 26.2341 249.606 61.0828 249.606 103.919C249.606 146.754 214.368 181.603 171.055 181.603ZM171.055 31.9885C130.95 31.9885 98.3224 64.2563 98.3224 103.919C98.3224 143.581 130.95 175.849 171.055 175.849C211.16 175.849 243.787 143.581 243.787 103.919C243.787 64.2563 211.16 31.9885 171.055 31.9885Z" fill="#3D200D"/>
<path d="M171.055 172.972C132.556 172.972 101.232 141.993 101.232 103.919C101.232 65.8446 132.556 34.8657 171.055 34.8657C209.554 34.8657 240.878 65.8446 240.878 103.919C240.878 141.993 209.556 172.972 171.055 172.972ZM171.055 40.6201C135.762 40.6201 107.05 69.0153 107.05 103.919C107.05 138.822 135.762 167.217 171.055 167.217C206.347 167.217 235.059 138.822 235.059 103.919C235.059 69.0153 206.347 40.6201 171.055 40.6201Z" fill="#3D200D"/>
<path d="M246.101 20.5372H-2.50617C-4.99126 20.5372 -7 19.2511 -7 17.66C-7 16.0689 -4.99126 14.7828 -2.50617 14.7828H246.101C248.586 14.7828 250.595 16.0689 250.595 17.66C250.595 19.2511 248.586 20.5372 246.101 20.5372Z" fill="#3D200D"/>
<path d="M246.101 11.9056H-2.50617C-4.99126 11.9056 -7 10.6195 -7 9.02839C-7 7.4373 -4.99126 6.15118 -2.50617 6.15118H246.101C248.586 6.15118 250.595 7.4373 250.595 9.02839C250.595 10.6195 248.586 11.9056 246.101 11.9056Z" fill="#3D200D"/>
<path d="M256.885 26.2916C249.664 26.2916 243.787 20.4826 243.787 13.3442C243.787 6.20587 249.664 0.39679 256.885 0.39679C264.103 0.39679 269.977 6.20587 269.977 13.3442C269.977 20.4826 264.106 26.2916 256.885 26.2916ZM256.885 6.1512C252.87 6.1512 249.606 9.37655 249.606 13.3442C249.606 17.3119 252.87 20.5372 256.885 20.5372C260.897 20.5372 264.158 17.3119 264.158 13.3442C264.158 9.37655 260.897 6.1512 256.885 6.1512Z" fill="#3D200D"/>
<path d="M118.74 52.7706C117.131 52.7706 115.831 51.4845 115.831 49.8934V17.66C115.831 16.0689 117.131 14.7828 118.74 14.7828C120.349 14.7828 121.649 16.0689 121.649 17.66V49.8934C121.649 51.4845 120.349 52.7706 118.74 52.7706Z" fill="#3D200D"/>
<path d="M223.486 52.8713C221.877 52.8713 220.577 51.5852 220.577 49.9941V17.66C220.577 16.0689 221.877 14.7828 223.486 14.7828C225.095 14.7828 226.396 16.0689 226.396 17.66V49.9941C226.396 51.5852 225.092 52.8713 223.486 52.8713Z" fill="#3D200D"/>
<path d="M214.752 45.7301C213.144 45.7301 211.843 44.444 211.843 42.8529V17.66C211.843 16.0689 213.144 14.7828 214.752 14.7828C216.361 14.7828 217.662 16.0689 217.662 17.66V42.8529C217.662 44.4411 216.361 45.7301 214.752 45.7301Z" fill="#3D200D"/>
<path d="M127.474 45.7301C125.865 45.7301 124.564 44.444 124.564 42.8529V17.66C124.564 16.0689 125.865 14.7828 127.474 14.7828C129.082 14.7828 130.383 16.0689 130.383 17.66V42.8529C130.383 44.4411 129.082 45.7301 127.474 45.7301Z" fill="#3D200D"/>
<ellipse cx="171.268" cy="103.847" rx="64.3902" ry="64.2353" fill="white"/>
<path d="M143.569 91.357C142.211 91.357 140.986 91.077 139.894 90.517C138.802 89.957 137.934 89.131 137.29 88.039C136.66 86.947 136.345 85.617 136.345 84.049C136.345 82.873 136.534 81.83 136.912 80.92C137.304 80.01 137.836 79.247 138.508 78.631C139.194 78.001 139.978 77.532 140.86 77.224C141.742 76.902 142.68 76.741 143.674 76.741C144.444 76.741 145.165 76.832 145.837 77.014C146.509 77.182 147.153 77.434 147.769 77.77L147.853 80.521H147.286L146.404 78.862C146.264 78.582 146.11 78.33 145.942 78.106C145.788 77.882 145.585 77.721 145.333 77.623C144.983 77.455 144.57 77.371 144.094 77.371C143.268 77.371 142.512 77.581 141.826 78.001C141.154 78.421 140.615 79.121 140.209 80.101C139.803 81.067 139.6 82.39 139.6 84.07C139.6 85.736 139.789 87.059 140.167 88.039C140.559 89.019 141.084 89.719 141.742 90.139C142.4 90.545 143.142 90.748 143.968 90.748C144.346 90.748 144.654 90.72 144.892 90.664C145.13 90.608 145.368 90.531 145.606 90.433C145.886 90.321 146.103 90.16 146.257 89.95C146.411 89.726 146.544 89.474 146.656 89.194L147.454 87.283H148.021L147.937 90.307C147.335 90.643 146.67 90.902 145.942 91.084C145.214 91.266 144.423 91.357 143.569 91.357ZM155.49 91.357C154.636 91.357 153.817 91.203 153.033 90.895C152.249 90.587 151.542 90.132 150.912 89.53C150.296 88.914 149.806 88.151 149.442 87.241C149.078 86.331 148.896 85.267 148.896 84.049C148.896 82.859 149.078 81.809 149.442 80.899C149.806 79.989 150.296 79.226 150.912 78.61C151.542 77.994 152.249 77.532 153.033 77.224C153.831 76.902 154.65 76.741 155.49 76.741C156.33 76.741 157.142 76.895 157.926 77.203C158.724 77.511 159.431 77.973 160.047 78.589C160.663 79.191 161.153 79.947 161.517 80.857C161.881 81.767 162.063 82.831 162.063 84.049C162.063 85.239 161.881 86.289 161.517 87.199C161.153 88.109 160.663 88.872 160.047 89.488C159.431 90.104 158.731 90.573 157.947 90.895C157.163 91.203 156.344 91.357 155.49 91.357ZM155.49 90.727C156.288 90.727 156.932 90.524 157.422 90.118C157.912 89.698 158.269 88.998 158.493 88.018C158.717 87.038 158.829 85.715 158.829 84.049C158.829 82.383 158.717 81.067 158.493 80.101C158.269 79.121 157.912 78.428 157.422 78.022C156.932 77.602 156.288 77.392 155.49 77.392C154.706 77.392 154.062 77.602 153.558 78.022C153.068 78.428 152.711 79.121 152.487 80.101C152.263 81.067 152.151 82.383 152.151 84.049C152.151 85.715 152.263 87.038 152.487 88.018C152.711 88.998 153.068 89.698 153.558 90.118C154.062 90.524 154.706 90.727 155.49 90.727ZM162.617 91V90.559L163.016 90.454C163.296 90.37 163.478 90.244 163.562 90.076C163.646 89.908 163.695 89.677 163.709 89.383C163.723 88.585 163.73 87.78 163.73 86.968C163.73 86.142 163.73 85.316 163.73 84.49V83.629C163.73 82.817 163.73 82.005 163.73 81.193C163.73 80.381 163.723 79.569 163.709 78.757C163.695 78.463 163.653 78.239 163.583 78.085C163.513 77.917 163.345 77.791 163.079 77.707L162.617 77.56V77.119H172.718L172.865 80.668H172.298L171.206 78.589C171.066 78.323 170.912 78.12 170.744 77.98C170.576 77.826 170.331 77.749 170.009 77.749H166.775C166.761 78.687 166.747 79.653 166.733 80.647C166.733 81.627 166.733 82.607 166.733 83.587H168.749C169.071 83.587 169.309 83.517 169.463 83.377C169.617 83.223 169.764 83.013 169.904 82.747L170.324 81.97H170.786V85.813H170.324L169.904 85.057C169.75 84.777 169.596 84.567 169.442 84.427C169.302 84.273 169.071 84.196 168.749 84.196H166.733C166.733 85.12 166.733 86.009 166.733 86.863C166.733 87.703 166.74 88.529 166.754 89.341C166.754 89.915 167.013 90.272 167.531 90.412L168.161 90.559V91H162.617ZM173.711 91V90.559L174.11 90.454C174.39 90.37 174.572 90.244 174.656 90.076C174.74 89.908 174.789 89.677 174.803 89.383C174.817 88.585 174.824 87.78 174.824 86.968C174.824 86.142 174.824 85.316 174.824 84.49V83.629C174.824 82.817 174.824 82.005 174.824 81.193C174.824 80.381 174.817 79.569 174.803 78.757C174.789 78.463 174.747 78.239 174.677 78.085C174.607 77.917 174.439 77.791 174.173 77.707L173.711 77.56V77.119H183.812L183.959 80.668H183.392L182.3 78.589C182.16 78.323 182.006 78.12 181.838 77.98C181.67 77.826 181.425 77.749 181.103 77.749H177.869C177.855 78.687 177.841 79.653 177.827 80.647C177.827 81.627 177.827 82.607 177.827 83.587H179.843C180.165 83.587 180.403 83.517 180.557 83.377C180.711 83.223 180.858 83.013 180.998 82.747L181.418 81.97H181.88V85.813H181.418L180.998 85.057C180.844 84.777 180.69 84.567 180.536 84.427C180.396 84.273 180.165 84.196 179.843 84.196H177.827C177.827 85.12 177.827 86.009 177.827 86.863C177.827 87.703 177.834 88.529 177.848 89.341C177.848 89.915 178.107 90.272 178.625 90.412L179.255 90.559V91H173.711ZM184.806 91V90.559L185.226 90.412C185.478 90.342 185.653 90.223 185.751 90.055C185.849 89.873 185.905 89.628 185.919 89.32V78.757C185.905 78.463 185.856 78.239 185.772 78.085C185.688 77.917 185.513 77.791 185.247 77.707L184.806 77.56V77.119H194.802L194.949 80.479H194.361L193.521 78.589C193.409 78.323 193.283 78.12 193.143 77.98C193.003 77.826 192.793 77.749 192.513 77.749H188.943C188.929 78.617 188.922 79.513 188.922 80.437C188.922 81.347 188.922 82.376 188.922 83.524H191.001C191.281 83.524 191.491 83.454 191.631 83.314C191.785 83.16 191.925 82.957 192.051 82.705L192.408 81.907H192.87V85.792H192.408L192.03 84.994C191.918 84.742 191.792 84.539 191.652 84.385C191.512 84.231 191.302 84.154 191.022 84.154H188.922C188.922 85.162 188.922 86.03 188.922 86.758C188.922 87.486 188.922 88.137 188.922 88.711C188.936 89.271 188.943 89.824 188.943 90.37H192.975C193.255 90.37 193.472 90.3 193.626 90.16C193.78 90.006 193.906 89.796 194.004 89.53L194.781 87.64H195.369L195.222 91H184.806ZM196.434 91V90.559L196.854 90.412C197.106 90.342 197.281 90.223 197.379 90.055C197.477 89.873 197.533 89.628 197.547 89.32V78.757C197.533 78.463 197.484 78.239 197.4 78.085C197.316 77.917 197.141 77.791 196.875 77.707L196.434 77.56V77.119H206.43L206.577 80.479H205.989L205.149 78.589C205.037 78.323 204.911 78.12 204.771 77.98C204.631 77.826 204.421 77.749 204.141 77.749H200.571C200.557 78.617 200.55 79.513 200.55 80.437C200.55 81.347 200.55 82.376 200.55 83.524H202.629C202.909 83.524 203.119 83.454 203.259 83.314C203.413 83.16 203.553 82.957 203.679 82.705L204.036 81.907H204.498V85.792H204.036L203.658 84.994C203.546 84.742 203.42 84.539 203.28 84.385C203.14 84.231 202.93 84.154 202.65 84.154H200.55C200.55 85.162 200.55 86.03 200.55 86.758C200.55 87.486 200.55 88.137 200.55 88.711C200.564 89.271 200.571 89.824 200.571 90.37H204.603C204.883 90.37 205.1 90.3 205.254 90.16C205.408 90.006 205.534 89.796 205.632 89.53L206.409 87.64H206.997L206.85 91H196.434ZM153.831 115.357C153.061 115.357 152.277 115.259 151.479 115.063C150.695 114.881 150.037 114.636 149.505 114.328L149.631 111.409H150.24L150.891 112.858C151.087 113.264 151.29 113.6 151.5 113.866C151.71 114.132 151.99 114.335 152.34 114.475C152.578 114.573 152.802 114.643 153.012 114.685C153.236 114.713 153.481 114.727 153.747 114.727C154.601 114.727 155.273 114.51 155.763 114.076C156.267 113.628 156.519 113.04 156.519 112.312C156.519 111.654 156.344 111.136 155.994 110.758C155.658 110.38 155.112 110.016 154.356 109.666L153.495 109.288C152.319 108.77 151.388 108.168 150.702 107.482C150.03 106.796 149.694 105.886 149.694 104.752C149.694 103.912 149.904 103.198 150.324 102.61C150.758 102.008 151.353 101.546 152.109 101.224C152.865 100.902 153.747 100.741 154.755 100.741C155.497 100.741 156.19 100.839 156.834 101.035C157.492 101.231 158.066 101.497 158.556 101.833L158.409 104.437H157.8L157.023 102.862C156.799 102.4 156.582 102.071 156.372 101.875C156.176 101.665 155.931 101.532 155.637 101.476C155.469 101.448 155.322 101.427 155.196 101.413C155.084 101.399 154.93 101.392 154.734 101.392C154.048 101.392 153.453 101.595 152.949 102.001C152.459 102.393 152.214 102.939 152.214 103.639C152.214 104.311 152.403 104.857 152.781 105.277C153.159 105.697 153.705 106.068 154.419 106.39L155.364 106.789C156.722 107.377 157.695 108.007 158.283 108.679C158.871 109.337 159.165 110.184 159.165 111.22C159.165 112.452 158.696 113.453 157.758 114.223C156.834 114.979 155.525 115.357 153.831 115.357ZM160.146 115V114.559L160.545 114.433C160.825 114.335 161.014 114.209 161.112 114.055C161.21 113.887 161.259 113.663 161.259 113.383V102.757C161.259 102.477 161.21 102.253 161.112 102.085C161.028 101.917 160.846 101.784 160.566 101.686L160.146 101.56V101.119H165.333V101.56L164.976 101.665C164.71 101.763 164.528 101.896 164.43 102.064C164.332 102.218 164.283 102.435 164.283 102.715V107.545H169.512V102.715C169.512 102.435 169.463 102.218 169.365 102.064C169.267 101.896 169.078 101.763 168.798 101.665L168.462 101.56V101.119H173.649V101.56L173.25 101.686C172.984 101.784 172.795 101.917 172.683 102.085C172.585 102.239 172.536 102.456 172.536 102.736V113.383C172.536 113.663 172.585 113.887 172.683 114.055C172.795 114.209 172.984 114.335 173.25 114.433L173.649 114.559V115H168.462V114.559L168.798 114.454C169.078 114.356 169.267 114.23 169.365 114.076C169.463 113.908 169.512 113.684 169.512 113.404V108.175H164.283V113.404C164.283 113.684 164.332 113.908 164.43 114.076C164.542 114.23 164.731 114.356 164.997 114.454L165.333 114.559V115H160.146ZM180.807 115.357C179.953 115.357 179.134 115.203 178.35 114.895C177.566 114.587 176.859 114.132 176.229 113.53C175.613 112.914 175.123 112.151 174.759 111.241C174.395 110.331 174.213 109.267 174.213 108.049C174.213 106.859 174.395 105.809 174.759 104.899C175.123 103.989 175.613 103.226 176.229 102.61C176.859 101.994 177.566 101.532 178.35 101.224C179.148 100.902 179.967 100.741 180.807 100.741C181.647 100.741 182.459 100.895 183.243 101.203C184.041 101.511 184.748 101.973 185.364 102.589C185.98 103.191 186.47 103.947 186.834 104.857C187.198 105.767 187.38 106.831 187.38 108.049C187.38 109.239 187.198 110.289 186.834 111.199C186.47 112.109 185.98 112.872 185.364 113.488C184.748 114.104 184.048 114.573 183.264 114.895C182.48 115.203 181.661 115.357 180.807 115.357ZM180.807 114.727C181.605 114.727 182.249 114.524 182.739 114.118C183.229 113.698 183.586 112.998 183.81 112.018C184.034 111.038 184.146 109.715 184.146 108.049C184.146 106.383 184.034 105.067 183.81 104.101C183.586 103.121 183.229 102.428 182.739 102.022C182.249 101.602 181.605 101.392 180.807 101.392C180.023 101.392 179.379 101.602 178.875 102.022C178.385 102.428 178.028 103.121 177.804 104.101C177.58 105.067 177.468 106.383 177.468 108.049C177.468 109.715 177.58 111.038 177.804 112.018C178.028 112.998 178.385 113.698 178.875 114.118C179.379 114.524 180.023 114.727 180.807 114.727ZM187.934 115V114.559L188.354 114.454C188.634 114.37 188.816 114.244 188.9 114.076C188.984 113.908 189.026 113.677 189.026 113.383C189.04 112.585 189.047 111.78 189.047 110.968C189.047 110.142 189.047 109.316 189.047 108.49V107.629C189.047 106.817 189.047 106.005 189.047 105.193C189.047 104.381 189.04 103.569 189.026 102.757C189.026 102.463 188.977 102.239 188.879 102.085C188.795 101.917 188.613 101.784 188.333 101.686L187.934 101.56V101.119H192.995C195.039 101.119 196.523 101.504 197.447 102.274C198.385 103.03 198.854 104.031 198.854 105.277C198.854 106.061 198.658 106.789 198.266 107.461C197.888 108.119 197.258 108.644 196.376 109.036C195.494 109.428 194.304 109.624 192.806 109.624H192.05C192.05 110.212 192.05 110.821 192.05 111.451C192.05 112.067 192.057 112.697 192.071 113.341C192.071 113.915 192.33 114.265 192.848 114.391L193.478 114.559V115H187.934ZM192.05 109.015H192.932C193.632 109.015 194.199 108.91 194.633 108.7C195.081 108.476 195.41 108.098 195.62 107.566C195.844 107.034 195.956 106.299 195.956 105.361C195.956 104.423 195.837 103.695 195.599 103.177C195.375 102.645 195.032 102.274 194.57 102.064C194.108 101.84 193.534 101.728 192.848 101.728H192.071C192.057 102.694 192.05 103.674 192.05 104.668C192.05 105.648 192.05 106.635 192.05 107.629V109.015Z" fill="#3D200D"/>
<path d="M149.18 133.82L149.176 133.389L153.207 133.344L153.212 133.776L149.18 133.82ZM154.247 137.605L154.245 137.445L154.564 137.313C154.776 137.236 154.914 137.134 154.976 137.005C155.05 136.876 155.085 136.705 155.083 136.492L154.99 128.14C154.988 127.927 154.954 127.757 154.889 127.629C154.823 127.502 154.678 127.402 154.453 127.33L154.132 127.206L154.13 127.046L158.242 127L158.244 127.16L157.925 127.292C157.713 127.369 157.57 127.472 157.497 127.601C157.434 127.729 157.404 127.9 157.406 128.114L157.499 136.465C157.501 136.678 157.535 136.849 157.6 136.976C157.676 137.092 157.821 137.192 158.036 137.275L158.357 137.4L158.359 137.56L154.247 137.605ZM159.027 137.552L159.026 137.392L159.249 137.326C159.621 137.215 159.805 136.952 159.8 136.536L159.745 131.528C159.742 131.293 159.703 131.123 159.627 131.017C159.551 130.901 159.406 130.822 159.192 130.782L158.952 130.721L158.95 130.561L161.675 129.603L161.837 129.761L161.976 130.719C162.346 130.385 162.764 130.108 163.231 129.89C163.698 129.671 164.16 129.559 164.619 129.554C165.323 129.546 165.864 129.733 166.241 130.112C166.63 130.492 166.828 131.077 166.837 131.866L166.888 136.474C166.892 136.89 167.098 137.149 167.504 137.251L167.649 137.297L167.651 137.457L163.875 137.499L163.873 137.339L164.081 137.273C164.453 137.151 164.636 136.888 164.632 136.482L164.575 131.379C164.568 130.696 164.223 130.359 163.54 130.366C163.071 130.371 162.561 130.612 162.012 131.087L162.072 136.527C162.077 136.943 162.266 137.202 162.641 137.304L162.785 137.351L162.787 137.511L159.027 137.552ZM171.671 137.653C171.042 137.66 170.475 137.528 169.971 137.256C169.466 136.973 169.061 136.54 168.756 135.957C168.462 135.363 168.309 134.602 168.299 133.674C168.289 132.735 168.445 131.96 168.769 131.349C169.093 130.726 169.525 130.263 170.066 129.958C170.606 129.643 171.197 129.482 171.837 129.475C172.21 129.471 172.568 129.504 172.91 129.575C173.252 129.646 173.557 129.754 173.826 129.901L173.803 127.821C173.8 127.597 173.761 127.432 173.685 127.326C173.62 127.22 173.475 127.147 173.251 127.107L172.946 127.046L172.944 126.886L175.848 126.15L176.026 126.292L175.987 128.533L176.073 136.356C176.075 136.57 176.115 136.745 176.191 136.883C176.267 137.01 176.407 137.1 176.61 137.151L176.754 137.197L176.756 137.357L174.022 137.563L173.872 136.989C173.586 137.184 173.257 137.342 172.885 137.464C172.524 137.585 172.119 137.648 171.671 137.653ZM172.593 137.051C173.041 137.046 173.45 136.908 173.82 136.637L173.75 130.286C173.352 130.034 172.946 129.911 172.53 129.915C172.018 129.921 171.584 130.224 171.228 130.826C170.871 131.416 170.7 132.346 170.714 133.615C170.728 134.885 170.909 135.779 171.256 136.298C171.603 136.806 172.049 137.057 172.593 137.051ZM181.392 129.369C182.085 129.362 182.678 129.499 183.172 129.782C183.666 130.054 184.044 130.434 184.305 130.921C184.577 131.399 184.716 131.946 184.723 132.565C184.724 132.682 184.72 132.805 184.711 132.933C184.702 133.051 184.682 133.157 184.651 133.254L179.883 133.306C179.906 134.458 180.118 135.288 180.519 135.795C180.93 136.292 181.53 136.536 182.319 136.528C182.852 136.522 183.283 136.432 183.612 136.257C183.941 136.083 184.247 135.829 184.532 135.495L184.693 135.638C184.369 136.228 183.931 136.691 183.38 137.028C182.84 137.365 182.186 137.537 181.418 137.546C180.661 137.554 179.987 137.401 179.397 137.088C178.807 136.764 178.343 136.299 178.005 135.695C177.668 135.091 177.495 134.367 177.485 133.525C177.476 132.65 177.659 131.907 178.037 131.295C178.414 130.672 178.899 130.197 179.493 129.87C180.097 129.544 180.73 129.377 181.392 129.369ZM181.347 129.69C181.038 129.693 180.772 129.792 180.55 129.987C180.339 130.17 180.172 130.503 180.049 130.984C179.937 131.455 179.881 132.122 179.88 132.986L182.615 132.956C182.709 131.792 182.657 130.956 182.46 130.446C182.262 129.936 181.891 129.684 181.347 129.69ZM185.367 137.262L185.365 137.102L185.78 137.002C186.025 136.946 186.221 136.863 186.369 136.755C186.528 136.636 186.676 136.474 186.812 136.27L188.512 133.771L186.298 130.34C186.19 130.181 186.092 130.059 186.006 129.975C185.92 129.89 185.786 129.828 185.604 129.787L185.379 129.726L185.378 129.566L189.441 129.521L189.443 129.681L189.172 129.748C188.8 129.869 188.728 130.105 188.956 130.454L190.29 132.472L191.692 130.488C191.808 130.305 191.859 130.156 191.847 130.038C191.846 129.91 191.744 129.821 191.54 129.77L191.139 129.662L191.137 129.502L193.473 129.476L193.475 129.636L193.092 129.737C192.858 129.803 192.678 129.891 192.551 129.999C192.424 130.096 192.287 130.252 192.14 130.467L190.485 132.758L192.715 136.141C192.986 136.554 193.346 136.817 193.796 136.929L194.053 137.007L194.054 137.167L189.639 137.215L189.637 137.055L189.908 136.988C190.089 136.943 190.2 136.857 190.241 136.728C190.293 136.589 190.265 136.435 190.156 136.265L188.724 134.089L187.228 136.314C187.102 136.486 187.061 136.635 187.105 136.763C187.16 136.88 187.273 136.959 187.444 136.999L187.765 137.076L187.767 137.236L185.367 137.262ZM194.256 133.324L194.251 132.892L198.283 132.848L198.288 133.28L194.256 133.324Z" fill="#8E4D22"/>
</svg>
