<svg width="421" height="182" viewBox="0 0 421 182" fill="none" xmlns="http://www.w3.org/2000/svg">
<path d="M322.055 181.206C278.741 181.206 243.504 146.358 243.504 103.522C243.504 60.686 278.741 25.8373 322.055 25.8373C365.368 25.8373 400.606 60.686 400.606 103.522C400.606 146.358 365.368 181.206 322.055 181.206ZM322.055 31.5917C281.95 31.5917 249.322 63.8596 249.322 103.522C249.322 143.184 281.95 175.452 322.055 175.452C362.16 175.452 394.787 143.184 394.787 103.522C394.787 63.8596 362.16 31.5917 322.055 31.5917Z" fill="#3D200D"/>
<path d="M322.055 172.575C283.556 172.575 252.232 141.596 252.232 103.522C252.232 65.4478 283.556 34.4689 322.055 34.4689C360.554 34.4689 391.878 65.4478 391.878 103.522C391.878 141.596 360.556 172.575 322.055 172.575ZM322.055 40.2233C286.762 40.2233 258.05 68.6185 258.05 103.522C258.05 138.425 286.762 166.82 322.055 166.82C357.347 166.82 386.059 138.425 386.059 103.522C386.059 68.6185 357.347 40.2233 322.055 40.2233Z" fill="#3D200D"/>
<path d="M393.022 20.1405H6.97812C3.11922 20.1405 0 18.8543 0 17.2633C0 15.6722 3.11922 14.386 6.97812 14.386H393.022C396.881 14.386 400 15.6722 400 17.2633C400 18.8543 396.881 20.1405 393.022 20.1405Z" fill="#3D200D"/>
<path d="M394.022 11.5088H7.97812C4.11922 11.5088 1 10.2227 1 8.6316C1 7.04051 4.11922 5.75439 7.97812 5.75439H394.022C397.881 5.75439 401 7.04051 401 8.6316C401 10.2227 397.881 11.5088 394.022 11.5088Z" fill="#3D200D"/>
<path d="M407.885 25.8949C400.664 25.8949 394.787 20.0858 394.787 12.9474C394.787 5.80908 400.664 0 407.885 0C415.103 0 420.977 5.80908 420.977 12.9474C420.977 20.0858 415.106 25.8949 407.885 25.8949ZM407.885 5.75441C403.87 5.75441 400.606 8.97976 400.606 12.9474C400.606 16.9151 403.87 20.1404 407.885 20.1404C411.897 20.1404 415.158 16.9151 415.158 12.9474C415.158 8.97976 411.897 5.75441 407.885 5.75441Z" fill="#3D200D"/>
<path d="M269.74 52.3738C268.131 52.3738 266.831 51.0877 266.831 49.4966V17.2633C266.831 15.6722 268.131 14.386 269.74 14.386C271.349 14.386 272.649 15.6722 272.649 17.2633V49.4966C272.649 51.0877 271.349 52.3738 269.74 52.3738Z" fill="#3D200D"/>
<path d="M374.486 52.4745C372.877 52.4745 371.577 51.1884 371.577 49.5973V17.2633C371.577 15.6722 372.877 14.386 374.486 14.386C376.095 14.386 377.396 15.6722 377.396 17.2633V49.5973C377.396 51.1884 376.092 52.4745 374.486 52.4745Z" fill="#3D200D"/>
<path d="M365.752 45.3333C364.144 45.3333 362.843 44.0472 362.843 42.4561V17.2633C362.843 15.6722 364.144 14.386 365.752 14.386C367.361 14.386 368.662 15.6722 368.662 17.2633V42.4561C368.662 44.0443 367.361 45.3333 365.752 45.3333Z" fill="#3D200D"/>
<path d="M278.474 45.3333C276.865 45.3333 275.564 44.0472 275.564 42.4561V17.2633C275.564 15.6722 276.865 14.386 278.474 14.386C280.082 14.386 281.383 15.6722 281.383 17.2633V42.4561C281.383 44.0443 280.082 45.3333 278.474 45.3333Z" fill="#3D200D"/>
<ellipse cx="322.268" cy="103.45" rx="64.3902" ry="64.2353" fill="white"/>
<path d="M294.569 90.9602C293.211 90.9602 291.986 90.6802 290.894 90.1202C289.802 89.5602 288.934 88.7342 288.29 87.6422C287.66 86.5502 287.345 85.2202 287.345 83.6522C287.345 82.4762 287.534 81.4332 287.912 80.5232C288.304 79.6132 288.836 78.8502 289.508 78.2342C290.194 77.6042 290.978 77.1352 291.86 76.8272C292.742 76.5052 293.68 76.3442 294.674 76.3442C295.444 76.3442 296.165 76.4352 296.837 76.6172C297.509 76.7852 298.153 77.0372 298.769 77.3732L298.853 80.1242H298.286L297.404 78.4652C297.264 78.1852 297.11 77.9332 296.942 77.7092C296.788 77.4852 296.585 77.3242 296.333 77.2262C295.983 77.0582 295.57 76.9742 295.094 76.9742C294.268 76.9742 293.512 77.1842 292.826 77.6042C292.154 78.0242 291.615 78.7242 291.209 79.7042C290.803 80.6702 290.6 81.9932 290.6 83.6732C290.6 85.3392 290.789 86.6622 291.167 87.6422C291.559 88.6222 292.084 89.3222 292.742 89.7422C293.4 90.1482 294.142 90.3512 294.968 90.3512C295.346 90.3512 295.654 90.3232 295.892 90.2672C296.13 90.2112 296.368 90.1342 296.606 90.0362C296.886 89.9242 297.103 89.7632 297.257 89.5532C297.411 89.3292 297.544 89.0772 297.656 88.7972L298.454 86.8862H299.021L298.937 89.9102C298.335 90.2462 297.67 90.5052 296.942 90.6872C296.214 90.8692 295.423 90.9602 294.569 90.9602ZM306.49 90.9602C305.636 90.9602 304.817 90.8062 304.033 90.4982C303.249 90.1902 302.542 89.7352 301.912 89.1332C301.296 88.5172 300.806 87.7542 300.442 86.8442C300.078 85.9342 299.896 84.8702 299.896 83.6522C299.896 82.4622 300.078 81.4122 300.442 80.5022C300.806 79.5922 301.296 78.8292 301.912 78.2132C302.542 77.5972 303.249 77.1352 304.033 76.8272C304.831 76.5052 305.65 76.3442 306.49 76.3442C307.33 76.3442 308.142 76.4982 308.926 76.8062C309.724 77.1142 310.431 77.5762 311.047 78.1922C311.663 78.7942 312.153 79.5502 312.517 80.4602C312.881 81.3702 313.063 82.4342 313.063 83.6522C313.063 84.8422 312.881 85.8922 312.517 86.8022C312.153 87.7122 311.663 88.4752 311.047 89.0912C310.431 89.7072 309.731 90.1762 308.947 90.4982C308.163 90.8062 307.344 90.9602 306.49 90.9602ZM306.49 90.3302C307.288 90.3302 307.932 90.1272 308.422 89.7212C308.912 89.3012 309.269 88.6012 309.493 87.6212C309.717 86.6412 309.829 85.3182 309.829 83.6522C309.829 81.9862 309.717 80.6702 309.493 79.7042C309.269 78.7242 308.912 78.0312 308.422 77.6252C307.932 77.2052 307.288 76.9952 306.49 76.9952C305.706 76.9952 305.062 77.2052 304.558 77.6252C304.068 78.0312 303.711 78.7242 303.487 79.7042C303.263 80.6702 303.151 81.9862 303.151 83.6522C303.151 85.3182 303.263 86.6412 303.487 87.6212C303.711 88.6012 304.068 89.3012 304.558 89.7212C305.062 90.1272 305.706 90.3302 306.49 90.3302ZM313.617 90.6032V90.1622L314.016 90.0572C314.296 89.9732 314.478 89.8472 314.562 89.6792C314.646 89.5112 314.695 89.2802 314.709 88.9862C314.723 88.1882 314.73 87.3832 314.73 86.5712C314.73 85.7452 314.73 84.9192 314.73 84.0932V83.2322C314.73 82.4202 314.73 81.6082 314.73 80.7962C314.73 79.9842 314.723 79.1722 314.709 78.3602C314.695 78.0662 314.653 77.8422 314.583 77.6882C314.513 77.5202 314.345 77.3942 314.079 77.3102L313.617 77.1632V76.7222H323.718L323.865 80.2712H323.298L322.206 78.1922C322.066 77.9262 321.912 77.7232 321.744 77.5832C321.576 77.4292 321.331 77.3522 321.009 77.3522H317.775C317.761 78.2902 317.747 79.2562 317.733 80.2502C317.733 81.2302 317.733 82.2102 317.733 83.1902H319.749C320.071 83.1902 320.309 83.1202 320.463 82.9802C320.617 82.8262 320.764 82.6162 320.904 82.3502L321.324 81.5732H321.786V85.4162H321.324L320.904 84.6602C320.75 84.3802 320.596 84.1702 320.442 84.0302C320.302 83.8762 320.071 83.7992 319.749 83.7992H317.733C317.733 84.7232 317.733 85.6122 317.733 86.4662C317.733 87.3062 317.74 88.1322 317.754 88.9442C317.754 89.5182 318.013 89.8752 318.531 90.0152L319.161 90.1622V90.6032H313.617ZM324.711 90.6032V90.1622L325.11 90.0572C325.39 89.9732 325.572 89.8472 325.656 89.6792C325.74 89.5112 325.789 89.2802 325.803 88.9862C325.817 88.1882 325.824 87.3832 325.824 86.5712C325.824 85.7452 325.824 84.9192 325.824 84.0932V83.2322C325.824 82.4202 325.824 81.6082 325.824 80.7962C325.824 79.9842 325.817 79.1722 325.803 78.3602C325.789 78.0662 325.747 77.8422 325.677 77.6882C325.607 77.5202 325.439 77.3942 325.173 77.3102L324.711 77.1632V76.7222H334.812L334.959 80.2712H334.392L333.3 78.1922C333.16 77.9262 333.006 77.7232 332.838 77.5832C332.67 77.4292 332.425 77.3522 332.103 77.3522H328.869C328.855 78.2902 328.841 79.2562 328.827 80.2502C328.827 81.2302 328.827 82.2102 328.827 83.1902H330.843C331.165 83.1902 331.403 83.1202 331.557 82.9802C331.711 82.8262 331.858 82.6162 331.998 82.3502L332.418 81.5732H332.88V85.4162H332.418L331.998 84.6602C331.844 84.3802 331.69 84.1702 331.536 84.0302C331.396 83.8762 331.165 83.7992 330.843 83.7992H328.827C328.827 84.7232 328.827 85.6122 328.827 86.4662C328.827 87.3062 328.834 88.1322 328.848 88.9442C328.848 89.5182 329.107 89.8752 329.625 90.0152L330.255 90.1622V90.6032H324.711ZM335.806 90.6032V90.1622L336.226 90.0152C336.478 89.9452 336.653 89.8262 336.751 89.6582C336.849 89.4762 336.905 89.2312 336.919 88.9232V78.3602C336.905 78.0662 336.856 77.8422 336.772 77.6882C336.688 77.5202 336.513 77.3942 336.247 77.3102L335.806 77.1632V76.7222H345.802L345.949 80.0822H345.361L344.521 78.1922C344.409 77.9262 344.283 77.7232 344.143 77.5832C344.003 77.4292 343.793 77.3522 343.513 77.3522H339.943C339.929 78.2202 339.922 79.1162 339.922 80.0402C339.922 80.9502 339.922 81.9792 339.922 83.1272H342.001C342.281 83.1272 342.491 83.0572 342.631 82.9172C342.785 82.7632 342.925 82.5602 343.051 82.3082L343.408 81.5102H343.87V85.3952H343.408L343.03 84.5972C342.918 84.3452 342.792 84.1422 342.652 83.9882C342.512 83.8342 342.302 83.7572 342.022 83.7572H339.922C339.922 84.7652 339.922 85.6332 339.922 86.3612C339.922 87.0892 339.922 87.7402 339.922 88.3142C339.936 88.8742 339.943 89.4272 339.943 89.9732H343.975C344.255 89.9732 344.472 89.9032 344.626 89.7632C344.78 89.6092 344.906 89.3992 345.004 89.1332L345.781 87.2432H346.369L346.222 90.6032H335.806ZM347.434 90.6032V90.1622L347.854 90.0152C348.106 89.9452 348.281 89.8262 348.379 89.6582C348.477 89.4762 348.533 89.2312 348.547 88.9232V78.3602C348.533 78.0662 348.484 77.8422 348.4 77.6882C348.316 77.5202 348.141 77.3942 347.875 77.3102L347.434 77.1632V76.7222H357.43L357.577 80.0822H356.989L356.149 78.1922C356.037 77.9262 355.911 77.7232 355.771 77.5832C355.631 77.4292 355.421 77.3522 355.141 77.3522H351.571C351.557 78.2202 351.55 79.1162 351.55 80.0402C351.55 80.9502 351.55 81.9792 351.55 83.1272H353.629C353.909 83.1272 354.119 83.0572 354.259 82.9172C354.413 82.7632 354.553 82.5602 354.679 82.3082L355.036 81.5102H355.498V85.3952H355.036L354.658 84.5972C354.546 84.3452 354.42 84.1422 354.28 83.9882C354.14 83.8342 353.93 83.7572 353.65 83.7572H351.55C351.55 84.7652 351.55 85.6332 351.55 86.3612C351.55 87.0892 351.55 87.7402 351.55 88.3142C351.564 88.8742 351.571 89.4272 351.571 89.9732H355.603C355.883 89.9732 356.1 89.9032 356.254 89.7632C356.408 89.6092 356.534 89.3992 356.632 89.1332L357.409 87.2432H357.997L357.85 90.6032H347.434ZM304.831 114.96C304.061 114.96 303.277 114.862 302.479 114.666C301.695 114.484 301.037 114.239 300.505 113.931L300.631 111.012H301.24L301.891 112.461C302.087 112.867 302.29 113.203 302.5 113.469C302.71 113.735 302.99 113.938 303.34 114.078C303.578 114.176 303.802 114.246 304.012 114.288C304.236 114.316 304.481 114.33 304.747 114.33C305.601 114.33 306.273 114.113 306.763 113.679C307.267 113.231 307.519 112.643 307.519 111.915C307.519 111.257 307.344 110.739 306.994 110.361C306.658 109.983 306.112 109.619 305.356 109.269L304.495 108.891C303.319 108.373 302.388 107.771 301.702 107.085C301.03 106.399 300.694 105.489 300.694 104.355C300.694 103.515 300.904 102.801 301.324 102.213C301.758 101.611 302.353 101.149 303.109 100.827C303.865 100.505 304.747 100.344 305.755 100.344C306.497 100.344 307.19 100.442 307.834 100.638C308.492 100.834 309.066 101.1 309.556 101.436L309.409 104.04H308.8L308.023 102.465C307.799 102.003 307.582 101.674 307.372 101.478C307.176 101.268 306.931 101.135 306.637 101.079C306.469 101.051 306.322 101.03 306.196 101.016C306.084 101.002 305.93 100.995 305.734 100.995C305.048 100.995 304.453 101.198 303.949 101.604C303.459 101.996 303.214 102.542 303.214 103.242C303.214 103.914 303.403 104.46 303.781 104.88C304.159 105.3 304.705 105.671 305.419 105.993L306.364 106.392C307.722 106.98 308.695 107.61 309.283 108.282C309.871 108.94 310.165 109.787 310.165 110.823C310.165 112.055 309.696 113.056 308.758 113.826C307.834 114.582 306.525 114.96 304.831 114.96ZM311.146 114.603V114.162L311.545 114.036C311.825 113.938 312.014 113.812 312.112 113.658C312.21 113.49 312.259 113.266 312.259 112.986V102.36C312.259 102.08 312.21 101.856 312.112 101.688C312.028 101.52 311.846 101.387 311.566 101.289L311.146 101.163V100.722H316.333V101.163L315.976 101.268C315.71 101.366 315.528 101.499 315.43 101.667C315.332 101.821 315.283 102.038 315.283 102.318V107.148H320.512V102.318C320.512 102.038 320.463 101.821 320.365 101.667C320.267 101.499 320.078 101.366 319.798 101.268L319.462 101.163V100.722H324.649V101.163L324.25 101.289C323.984 101.387 323.795 101.52 323.683 101.688C323.585 101.842 323.536 102.059 323.536 102.339V112.986C323.536 113.266 323.585 113.49 323.683 113.658C323.795 113.812 323.984 113.938 324.25 114.036L324.649 114.162V114.603H319.462V114.162L319.798 114.057C320.078 113.959 320.267 113.833 320.365 113.679C320.463 113.511 320.512 113.287 320.512 113.007V107.778H315.283V113.007C315.283 113.287 315.332 113.511 315.43 113.679C315.542 113.833 315.731 113.959 315.997 114.057L316.333 114.162V114.603H311.146ZM331.807 114.96C330.953 114.96 330.134 114.806 329.35 114.498C328.566 114.19 327.859 113.735 327.229 113.133C326.613 112.517 326.123 111.754 325.759 110.844C325.395 109.934 325.213 108.87 325.213 107.652C325.213 106.462 325.395 105.412 325.759 104.502C326.123 103.592 326.613 102.829 327.229 102.213C327.859 101.597 328.566 101.135 329.35 100.827C330.148 100.505 330.967 100.344 331.807 100.344C332.647 100.344 333.459 100.498 334.243 100.806C335.041 101.114 335.748 101.576 336.364 102.192C336.98 102.794 337.47 103.55 337.834 104.46C338.198 105.37 338.38 106.434 338.38 107.652C338.38 108.842 338.198 109.892 337.834 110.802C337.47 111.712 336.98 112.475 336.364 113.091C335.748 113.707 335.048 114.176 334.264 114.498C333.48 114.806 332.661 114.96 331.807 114.96ZM331.807 114.33C332.605 114.33 333.249 114.127 333.739 113.721C334.229 113.301 334.586 112.601 334.81 111.621C335.034 110.641 335.146 109.318 335.146 107.652C335.146 105.986 335.034 104.67 334.81 103.704C334.586 102.724 334.229 102.031 333.739 101.625C333.249 101.205 332.605 100.995 331.807 100.995C331.023 100.995 330.379 101.205 329.875 101.625C329.385 102.031 329.028 102.724 328.804 103.704C328.58 104.67 328.468 105.986 328.468 107.652C328.468 109.318 328.58 110.641 328.804 111.621C329.028 112.601 329.385 113.301 329.875 113.721C330.379 114.127 331.023 114.33 331.807 114.33ZM338.934 114.603V114.162L339.354 114.057C339.634 113.973 339.816 113.847 339.9 113.679C339.984 113.511 340.026 113.28 340.026 112.986C340.04 112.188 340.047 111.383 340.047 110.571C340.047 109.745 340.047 108.919 340.047 108.093V107.232C340.047 106.42 340.047 105.608 340.047 104.796C340.047 103.984 340.04 103.172 340.026 102.36C340.026 102.066 339.977 101.842 339.879 101.688C339.795 101.52 339.613 101.387 339.333 101.289L338.934 101.163V100.722H343.995C346.039 100.722 347.523 101.107 348.447 101.877C349.385 102.633 349.854 103.634 349.854 104.88C349.854 105.664 349.658 106.392 349.266 107.064C348.888 107.722 348.258 108.247 347.376 108.639C346.494 109.031 345.304 109.227 343.806 109.227H343.05C343.05 109.815 343.05 110.424 343.05 111.054C343.05 111.67 343.057 112.3 343.071 112.944C343.071 113.518 343.33 113.868 343.848 113.994L344.478 114.162V114.603H338.934ZM343.05 108.618H343.932C344.632 108.618 345.199 108.513 345.633 108.303C346.081 108.079 346.41 107.701 346.62 107.169C346.844 106.637 346.956 105.902 346.956 104.964C346.956 104.026 346.837 103.298 346.599 102.78C346.375 102.248 346.032 101.877 345.57 101.667C345.108 101.443 344.534 101.331 343.848 101.331H343.071C343.057 102.297 343.05 103.277 343.05 104.271C343.05 105.251 343.05 106.238 343.05 107.232V108.618Z" fill="#3D200D"/>
<path d="M300.18 133.424L300.176 132.992L304.207 132.947L304.212 133.379L300.18 133.424ZM305.247 137.208L305.245 137.048L305.564 136.917C305.776 136.84 305.914 136.737 305.976 136.608C306.05 136.479 306.085 136.308 306.083 136.095L305.99 127.743C305.988 127.53 305.954 127.36 305.889 127.232C305.823 127.105 305.678 127.005 305.453 126.933L305.132 126.809L305.13 126.649L309.242 126.603L309.244 126.763L308.925 126.895C308.713 126.972 308.57 127.075 308.497 127.204C308.434 127.332 308.404 127.503 308.406 127.717L308.499 136.068C308.501 136.282 308.535 136.452 308.6 136.579C308.676 136.696 308.821 136.795 309.036 136.878L309.357 137.003L309.359 137.163L305.247 137.208ZM310.027 137.155L310.026 136.995L310.249 136.929C310.621 136.818 310.805 136.555 310.8 136.139L310.745 131.131C310.742 130.897 310.703 130.726 310.627 130.62C310.551 130.504 310.406 130.426 310.192 130.385L309.952 130.324L309.95 130.164L312.675 129.206L312.837 129.364L312.976 130.323C313.346 129.988 313.764 129.711 314.231 129.493C314.698 129.274 315.16 129.162 315.619 129.157C316.323 129.15 316.864 129.336 317.241 129.716C317.63 130.095 317.828 130.68 317.837 131.469L317.888 136.077C317.892 136.493 318.098 136.752 318.504 136.854L318.649 136.901L318.651 137.061L314.875 137.102L314.873 136.942L315.081 136.876C315.453 136.754 315.636 136.491 315.632 136.086L315.575 130.982C315.568 130.299 315.223 129.962 314.54 129.969C314.071 129.975 313.561 130.215 313.012 130.69L313.072 136.13C313.077 136.546 313.266 136.805 313.641 136.908L313.785 136.954L313.787 137.114L310.027 137.155ZM322.671 137.256C322.042 137.263 321.475 137.131 320.971 136.859C320.466 136.576 320.061 136.144 319.756 135.56C319.462 134.966 319.309 134.205 319.299 133.277C319.289 132.339 319.445 131.563 319.769 130.952C320.093 130.33 320.525 129.866 321.066 129.561C321.606 129.246 322.197 129.085 322.837 129.078C323.21 129.074 323.568 129.107 323.91 129.178C324.252 129.249 324.557 129.358 324.826 129.504L324.803 127.424C324.8 127.2 324.761 127.035 324.685 126.929C324.62 126.823 324.475 126.75 324.251 126.71L323.946 126.65L323.944 126.49L326.848 125.754L327.026 125.896L326.987 128.136L327.073 135.96C327.075 136.173 327.115 136.349 327.191 136.486C327.267 136.614 327.407 136.703 327.61 136.754L327.754 136.8L327.756 136.96L325.022 137.166L324.872 136.592C324.586 136.787 324.257 136.945 323.885 137.067C323.524 137.188 323.119 137.251 322.671 137.256ZM323.593 136.654C324.041 136.649 324.45 136.511 324.82 136.241L324.75 129.889C324.352 129.637 323.946 129.514 323.53 129.518C323.018 129.524 322.584 129.827 322.228 130.429C321.871 131.019 321.7 131.949 321.714 133.219C321.728 134.488 321.909 135.382 322.256 135.901C322.603 136.409 323.049 136.66 323.593 136.654ZM332.392 128.973C333.085 128.965 333.678 129.103 334.172 129.385C334.666 129.657 335.044 130.037 335.305 130.525C335.577 131.002 335.716 131.55 335.723 132.168C335.724 132.286 335.72 132.408 335.711 132.536C335.702 132.654 335.682 132.761 335.651 132.857L330.883 132.91C330.906 134.061 331.118 134.891 331.519 135.399C331.93 135.896 332.53 136.14 333.319 136.131C333.852 136.125 334.283 136.035 334.612 135.861C334.941 135.686 335.247 135.432 335.532 135.098L335.693 135.241C335.369 135.831 334.931 136.295 334.38 136.631C333.84 136.968 333.186 137.14 332.418 137.149C331.661 137.157 330.987 137.005 330.397 136.691C329.807 136.367 329.343 135.903 329.005 135.298C328.668 134.694 328.495 133.971 328.485 133.128C328.476 132.253 328.659 131.51 329.037 130.898C329.414 130.275 329.899 129.8 330.493 129.474C331.097 129.147 331.73 128.98 332.392 128.973ZM332.347 129.293C332.038 129.297 331.772 129.396 331.55 129.59C331.339 129.774 331.172 130.106 331.049 130.588C330.937 131.058 330.881 131.726 330.88 132.59L333.615 132.559C333.709 131.396 333.657 130.559 333.46 130.049C333.262 129.539 332.891 129.287 332.347 129.293ZM336.367 136.865L336.365 136.705L336.78 136.605C337.025 136.549 337.221 136.467 337.369 136.358C337.528 136.239 337.676 136.078 337.812 135.873L339.512 133.375L337.298 129.943C337.19 129.784 337.092 129.662 337.006 129.578C336.92 129.494 336.786 129.431 336.604 129.39L336.379 129.329L336.378 129.169L340.441 129.124L340.443 129.284L340.172 129.351C339.8 129.472 339.728 129.708 339.956 130.057L341.29 132.075L342.692 130.091C342.808 129.909 342.859 129.759 342.847 129.642C342.846 129.514 342.744 129.424 342.54 129.373L342.139 129.265L342.137 129.105L344.473 129.08L344.475 129.24L344.092 129.34C343.858 129.406 343.678 129.494 343.551 129.602C343.424 129.699 343.287 129.855 343.14 130.07L341.485 132.361L343.715 135.744C343.986 136.157 344.346 136.42 344.796 136.533L345.053 136.61L345.054 136.77L340.639 136.818L340.637 136.658L340.908 136.591C341.089 136.547 341.2 136.46 341.241 136.332C341.293 136.192 341.265 136.038 341.156 135.869L339.724 133.692L338.228 135.917C338.102 136.089 338.061 136.239 338.105 136.366C338.16 136.483 338.273 136.562 338.444 136.603L338.765 136.679L338.767 136.839L336.367 136.865ZM345.256 132.927L345.251 132.495L349.283 132.451L349.288 132.883L345.256 132.927Z" fill="#8E4D22"/>
</svg>
